# xmcd CD database file
#
# Track frame offsets:
#	150
#	24302
#	48015
#	71297
#	88367
#	114240
#	138270
#	167805
#	188610
#	213117
#	235552
#	259285
#	285135
#	308050
#
# Disc length: 4338 seconds
#
# Revision: 0
# Processed by: cddbd v1.5.2PL0 Copyright (c) Steve Scherf et al.
# Submitted via: CDex 1.81
#
DISCID=ab10f00e
DTITLE=European Jazz Trio - Best Selection Box [Disc5] Earth
DYEAR=2004
DGENRE=Jazz
TTITLE0=When You Wish Upon
TTITLE1=Zingaro
TTITLE2=Gymnopedie No.1
TTITLE3=La Campanella
TTITLE4=Ave Maria
TTITLE5=Air On G String
TTITLE6=Boy On A Dolphin
TTITLE7=Once Upon A Summertime
TTITLE8=What A Wonderful World
TTITLE9=Chanson De L'adieu
TTITLE10=Sereade
TTITLE11=Love Story
TTITLE12=Hello
TTITLE13=Pavane
EXTD=YEAR: 2004
EXTT0=
EXTT1=
EXTT2=
EXTT3=
EXTT4=
EXTT5=
EXTT6=
EXTT7=
EXTT8=
EXTT9=
EXTT10=
EXTT11=
EXTT12=
EXTT13=
PLAYORDER=
